<svg xmlns="http://www.w3.org/2000/svg" width="200" height="250" viewBox="0 0 200 250">
  <!-- Simplified Bangladesh country outline -->
  <path d="
    M 95,10
    C 100,8 110,12 115,15
    L 125,20 L 130,18 L 140,22
    C 145,25 148,30 150,35
    L 155,40 L 158,50 L 160,60
    C 162,70 160,80 158,88
    L 155,95 L 160,105 L 165,115
    C 168,125 170,135 168,142
    L 165,150 L 160,158 L 155,165
    C 150,172 145,178 140,185
    L 135,190 L 128,195 L 120,200
    C 115,205 110,210 105,215
    L 100,218 L 95,220
    C 90,218 85,215 80,210
    L 75,205 L 70,200 L 65,192
    C 60,185 58,178 55,170
    L 52,160 L 50,150 L 48,140
    C 46,130 45,120 48,110
    L 50,100 L 52,90 L 55,80
    C 58,70 60,60 65,52
    L 70,45 L 75,38 L 80,30
    C 83,25 87,18 90,14
    Z
  " fill="currentColor" opacity="0.15" stroke="currentColor" stroke-width="1" stroke-opacity="0.3"/>
</svg>
